<mxfile host="app.diagrams.net" agent="Mozilla/5.0 (Windows NT 10.0; Win64; x64) AppleWebKit/537.36 (KHTML, like Gecko) Chrome/138.0.0.0 Safari/537.36 Edg/138.0.0.0" version="27.2.0">
  <diagram name="01_Static Web" id="xkmauHe3F1JrDeztkYAI">
    <mxGraphModel dx="974" dy="589" grid="0" gridSize="10" guides="0" tooltips="1" connect="0" arrows="0" fold="1" page="1" pageScale="1" pageWidth="850" pageHeight="1100" math="0" shadow="0">
      <root>
        <mxCell id="0" />
        <mxCell id="1" parent="0" />
        <mxCell id="4sBiaInl0CQW2wXLy_Px-50" value="AWS Cloud" style="sketch=0;outlineConnect=0;gradientColor=none;html=1;whiteSpace=wrap;fontSize=12;fontStyle=0;shape=mxgraph.aws4.group;grIcon=mxgraph.aws4.group_aws_cloud;strokeColor=#858B94;fillColor=none;verticalAlign=top;align=left;spacingLeft=30;fontColor=#858B94;dashed=0;container=1;" parent="1" vertex="1">
          <mxGeometry x="112" y="189" width="632" height="300" as="geometry" />
        </mxCell>
        <mxCell id="4sBiaInl0CQW2wXLy_Px-3" value="" style="dashed=0;outlineConnect=0;html=1;align=center;labelPosition=center;verticalLabelPosition=bottom;verticalAlign=top;shape=mxgraph.weblogos.github;textShadow=1;" parent="1" vertex="1">
          <mxGeometry x="761" y="371" width="76" height="80" as="geometry" />
        </mxCell>
        <mxCell id="4sBiaInl0CQW2wXLy_Px-7" value="Amazon Cloudfront" style="sketch=0;outlineConnect=0;fontColor=#232F3E;gradientColor=none;strokeColor=#ffffff;fillColor=#232F3E;dashed=0;verticalLabelPosition=middle;verticalAlign=bottom;align=center;html=1;whiteSpace=wrap;fontSize=10;fontStyle=1;spacing=3;shape=mxgraph.aws4.productIcon;prIcon=mxgraph.aws4.cloudfront;textShadow=1;" parent="1" vertex="1">
          <mxGeometry x="311" y="219" width="80" height="108" as="geometry" />
        </mxCell>
        <mxCell id="4sBiaInl0CQW2wXLy_Px-10" value="Amazon Route 53" style="sketch=0;outlineConnect=0;fontColor=#232F3E;gradientColor=none;strokeColor=#ffffff;fillColor=#232F3E;dashed=0;verticalLabelPosition=middle;verticalAlign=bottom;align=center;html=1;whiteSpace=wrap;fontSize=10;fontStyle=1;spacing=3;shape=mxgraph.aws4.productIcon;prIcon=mxgraph.aws4.route_53;textShadow=1;" parent="1" vertex="1">
          <mxGeometry x="177" y="217" width="80" height="110" as="geometry" />
        </mxCell>
        <mxCell id="4sBiaInl0CQW2wXLy_Px-12" value="" style="endArrow=classic;html=1;rounded=0;fontSize=12;startSize=8;endSize=8;curved=1;textShadow=1;" parent="1" edge="1">
          <mxGeometry width="50" height="50" relative="1" as="geometry">
            <mxPoint x="756" y="409" as="sourcePoint" />
            <mxPoint x="698" y="411" as="targetPoint" />
          </mxGeometry>
        </mxCell>
        <mxCell id="4sBiaInl0CQW2wXLy_Px-19" value="" style="edgeStyle=segmentEdgeStyle;endArrow=classic;html=1;curved=0;rounded=0;endSize=8;startSize=8;fontSize=12;textShadow=1;labelBorderColor=default;" parent="1" source="4sBiaInl0CQW2wXLy_Px-8" target="4sBiaInl0CQW2wXLy_Px-7" edge="1">
          <mxGeometry width="50" height="50" relative="1" as="geometry">
            <mxPoint x="400" y="401" as="sourcePoint" />
            <mxPoint x="450" y="351" as="targetPoint" />
            <Array as="points">
              <mxPoint x="476" y="285" />
            </Array>
          </mxGeometry>
        </mxCell>
        <mxCell id="4sBiaInl0CQW2wXLy_Px-21" value="" style="edgeStyle=segmentEdgeStyle;endArrow=classic;html=1;curved=0;rounded=0;endSize=8;startSize=8;fontSize=12;textShadow=1;" parent="1" source="4sBiaInl0CQW2wXLy_Px-8" target="4sBiaInl0CQW2wXLy_Px-10" edge="1">
          <mxGeometry width="50" height="50" relative="1" as="geometry">
            <mxPoint x="320" y="408" as="sourcePoint" />
            <mxPoint x="450" y="305" as="targetPoint" />
          </mxGeometry>
        </mxCell>
        <mxCell id="4sBiaInl0CQW2wXLy_Px-25" value="Region" style="points=[[0,0],[0.25,0],[0.5,0],[0.75,0],[1,0],[1,0.25],[1,0.5],[1,0.75],[1,1],[0.75,1],[0.5,1],[0.25,1],[0,1],[0,0.75],[0,0.5],[0,0.25]];outlineConnect=0;gradientColor=none;html=1;whiteSpace=wrap;fontSize=12;fontStyle=0;container=1;pointerEvents=0;collapsible=0;recursiveResize=0;shape=mxgraph.aws4.group;grIcon=mxgraph.aws4.group_region;strokeColor=#00A4A6;fillColor=none;verticalAlign=top;align=left;spacingLeft=30;fontColor=#147EBA;dashed=1;textShadow=1;" parent="1" vertex="1">
          <mxGeometry x="425" y="207" width="305" height="265" as="geometry" />
        </mxCell>
        <mxCell id="4sBiaInl0CQW2wXLy_Px-8" value="AWS Certificate Manager" style="sketch=0;outlineConnect=0;fontColor=#232F3E;gradientColor=none;strokeColor=#ffffff;fillColor=#232F3E;dashed=0;verticalLabelPosition=middle;verticalAlign=bottom;align=center;html=1;whiteSpace=wrap;fontSize=10;fontStyle=1;spacing=3;shape=mxgraph.aws4.productIcon;prIcon=mxgraph.aws4.certificate_manager_3;textShadow=1;" parent="4sBiaInl0CQW2wXLy_Px-25" vertex="1">
          <mxGeometry x="27" y="151" width="85" height="114" as="geometry" />
        </mxCell>
        <mxCell id="4sBiaInl0CQW2wXLy_Px-6" value="Amazon S3" style="sketch=0;outlineConnect=0;fontColor=#232F3E;gradientColor=none;strokeColor=#ffffff;fillColor=#232F3E;dashed=0;verticalLabelPosition=middle;verticalAlign=bottom;align=center;html=1;whiteSpace=wrap;fontSize=10;fontStyle=1;spacing=3;shape=mxgraph.aws4.productIcon;prIcon=mxgraph.aws4.s3;textShadow=1;" parent="4sBiaInl0CQW2wXLy_Px-25" vertex="1">
          <mxGeometry x="117" y="19" width="80" height="100" as="geometry" />
        </mxCell>
        <mxCell id="4sBiaInl0CQW2wXLy_Px-5" value="AWS CodePipeline" style="sketch=0;outlineConnect=0;fontColor=#232F3E;gradientColor=none;strokeColor=#ffffff;fillColor=#232F3E;dashed=0;verticalLabelPosition=middle;verticalAlign=bottom;align=center;html=1;whiteSpace=wrap;fontSize=10;fontStyle=1;spacing=3;shape=mxgraph.aws4.productIcon;prIcon=mxgraph.aws4.codepipeline;textShadow=1;" parent="4sBiaInl0CQW2wXLy_Px-25" vertex="1">
          <mxGeometry x="194" y="155" width="80" height="110" as="geometry" />
        </mxCell>
        <mxCell id="4sBiaInl0CQW2wXLy_Px-27" value="" style="edgeStyle=segmentEdgeStyle;endArrow=classic;html=1;curved=0;rounded=0;endSize=8;startSize=8;fontSize=12;textShadow=1;" parent="4sBiaInl0CQW2wXLy_Px-25" source="4sBiaInl0CQW2wXLy_Px-5" target="4sBiaInl0CQW2wXLy_Px-6" edge="1">
          <mxGeometry width="50" height="50" relative="1" as="geometry">
            <mxPoint x="-4" y="150" as="sourcePoint" />
            <mxPoint x="46" y="100" as="targetPoint" />
          </mxGeometry>
        </mxCell>
        <mxCell id="4sBiaInl0CQW2wXLy_Px-28" value="" style="endArrow=classic;html=1;rounded=0;fontSize=12;startSize=8;endSize=8;curved=1;textShadow=1;" parent="1" edge="1">
          <mxGeometry width="50" height="50" relative="1" as="geometry">
            <mxPoint x="399" y="268" as="sourcePoint" />
            <mxPoint x="535" y="268" as="targetPoint" />
          </mxGeometry>
        </mxCell>
        <mxCell id="4sBiaInl0CQW2wXLy_Px-29" value="" style="endArrow=classic;html=1;rounded=0;fontSize=12;startSize=8;endSize=8;curved=1;textShadow=1;" parent="1" source="4sBiaInl0CQW2wXLy_Px-10" target="4sBiaInl0CQW2wXLy_Px-7" edge="1">
          <mxGeometry width="50" height="50" relative="1" as="geometry">
            <mxPoint x="400" y="355" as="sourcePoint" />
            <mxPoint x="450" y="305" as="targetPoint" />
          </mxGeometry>
        </mxCell>
        <mxCell id="4sBiaInl0CQW2wXLy_Px-30" value="Internet" style="sketch=0;outlineConnect=0;fontColor=#232F3E;gradientColor=none;strokeColor=#232F3E;fillColor=#ffffff;dashed=0;verticalLabelPosition=bottom;verticalAlign=top;align=center;html=1;fontSize=12;fontStyle=0;aspect=fixed;shape=mxgraph.aws4.resourceIcon;resIcon=mxgraph.aws4.internet;textShadow=1;" parent="1" vertex="1">
          <mxGeometry x="191" y="86" width="60" height="60" as="geometry" />
        </mxCell>
        <mxCell id="4sBiaInl0CQW2wXLy_Px-33" value="" style="endArrow=classic;html=1;rounded=0;fontSize=12;startSize=8;endSize=8;curved=1;textShadow=1;" parent="1" edge="1">
          <mxGeometry width="50" height="50" relative="1" as="geometry">
            <mxPoint x="218" y="174" as="sourcePoint" />
            <mxPoint x="218" y="212" as="targetPoint" />
          </mxGeometry>
        </mxCell>
        <mxCell id="4sBiaInl0CQW2wXLy_Px-34" value="" style="endArrow=classic;html=1;rounded=0;fontSize=12;startSize=8;endSize=8;curved=1;textShadow=1;" parent="1" edge="1">
          <mxGeometry width="50" height="50" relative="1" as="geometry">
            <mxPoint x="317" y="116" as="sourcePoint" />
            <mxPoint x="251" y="116" as="targetPoint" />
          </mxGeometry>
        </mxCell>
        <mxCell id="4sBiaInl0CQW2wXLy_Px-40" value="" style="endArrow=classic;html=1;rounded=0;fontSize=12;startSize=8;endSize=8;curved=1;fillColor=#60a917;strokeColor=#2D7600;" parent="1" edge="1">
          <mxGeometry width="50" height="50" relative="1" as="geometry">
            <mxPoint x="534" y="248" as="sourcePoint" />
            <mxPoint x="396" y="248" as="targetPoint" />
          </mxGeometry>
        </mxCell>
        <mxCell id="4sBiaInl0CQW2wXLy_Px-41" value="" style="endArrow=classic;html=1;rounded=0;fontSize=12;startSize=8;endSize=8;curved=1;fillColor=#60a917;strokeColor=#2D7600;" parent="1" edge="1">
          <mxGeometry width="50" height="50" relative="1" as="geometry">
            <mxPoint x="307" y="254" as="sourcePoint" />
            <mxPoint x="255" y="252" as="targetPoint" />
          </mxGeometry>
        </mxCell>
        <mxCell id="4sBiaInl0CQW2wXLy_Px-43" value="" style="endArrow=classic;html=1;rounded=0;fontSize=12;startSize=8;endSize=8;curved=1;textShadow=1;fillColor=#60a917;strokeColor=#2D7600;" parent="1" edge="1">
          <mxGeometry width="50" height="50" relative="1" as="geometry">
            <mxPoint x="257" y="131" as="sourcePoint" />
            <mxPoint x="316" y="132" as="targetPoint" />
          </mxGeometry>
        </mxCell>
        <mxCell id="4sBiaInl0CQW2wXLy_Px-46" value="" style="endArrow=classic;html=1;rounded=0;fontSize=12;startSize=8;endSize=8;curved=1;textShadow=1;fillColor=#60a917;strokeColor=#2D7600;" parent="1" edge="1">
          <mxGeometry width="50" height="50" relative="1" as="geometry">
            <mxPoint x="233" y="206" as="sourcePoint" />
            <mxPoint x="233" y="171" as="targetPoint" />
          </mxGeometry>
        </mxCell>
        <mxCell id="4sBiaInl0CQW2wXLy_Px-55" value="" style="sketch=0;verticalLabelPosition=bottom;sketch=0;aspect=fixed;html=1;verticalAlign=top;strokeColor=none;fillColor=#000000;align=center;outlineConnect=0;pointerEvents=1;shape=mxgraph.citrix2.external_users;" parent="1" vertex="1">
          <mxGeometry x="329" y="101" width="48.449999999999996" height="50" as="geometry" />
        </mxCell>
        <mxCell id="4sBiaInl0CQW2wXLy_Px-56" value="GitHub" style="text;html=1;align=center;verticalAlign=middle;whiteSpace=wrap;rounded=0;" parent="1" vertex="1">
          <mxGeometry x="768" y="460" width="60" height="30" as="geometry" />
        </mxCell>
        <mxCell id="4sBiaInl0CQW2wXLy_Px-57" value="User" style="text;html=1;align=center;verticalAlign=middle;whiteSpace=wrap;rounded=0;" parent="1" vertex="1">
          <mxGeometry x="323" y="154" width="60" height="30" as="geometry" />
        </mxCell>
      </root>
    </mxGraphModel>
  </diagram>
</mxfile>
